<svg xmlns="http://www.w3.org/2000/svg" xmlns:xlink="http://www.w3.org/1999/xlink" version="1.1" x="0px" y="0px" viewBox="0 0 100 125" fill="rgba(230, 160, 196, 1)" enable-background="new 0 0 100 100" xml:space="preserve"><g><g><path d="M84.375,49.357L68.002,36.236v-2.76v-1.585c0-0.276-0.224-0.5-0.5-0.5h-3.044v-8.417c0-0.219-0.143-0.412-0.352-0.478    l-1.522-0.474v-0.966c0-0.276-0.224-0.5-0.5-0.5h-0.354v-0.957c0-0.276-0.224-0.5-0.5-0.5s-0.5,0.224-0.5,0.5v0.957h-0.354    c-0.276,0-0.5,0.224-0.5,0.5v0.834h-3.623v-0.667c0-0.276-0.224-0.5-0.5-0.5h-1.917v-1.124c0-0.276-0.224-0.5-0.5-0.5    s-0.5,0.224-0.5,0.5v1.124h-0.659l-1.517-2.124c-0.188-0.262-0.627-0.262-0.814,0l-1.517,2.124h-0.619v-1.124    c0-0.276-0.224-0.5-0.5-0.5s-0.5,0.224-0.5,0.5v1.124h-1.957c-0.276,0-0.5,0.224-0.5,0.5v0.667h-3.583v-0.834    c0-0.276-0.224-0.5-0.5-0.5h-0.354v-0.957c0-0.276-0.224-0.5-0.5-0.5s-0.5,0.224-0.5,0.5v0.957H38.46c-0.276,0-0.5,0.224-0.5,0.5    v0.966l-1.522,0.474c-0.209,0.065-0.352,0.259-0.352,0.478v8.417h-3.084c-0.276,0-0.5,0.224-0.5,0.5v1.085h-0.334    c-0.276,0-0.5,0.224-0.5,0.5v2.768L15.741,49.617c-0.113,0.095-0.179,0.235-0.179,0.383v27.934c0,0.276,0.224,0.5,0.5,0.5h68    c0.276,0,0.5-0.224,0.5-0.5V49.748C84.562,49.597,84.493,49.453,84.375,49.357z M64.382,37.502c-0.861,0-1.562,0.701-1.562,1.562    v3.625c0,0.087,0.008,0.173,0.023,0.259l-0.898,0.729v-1.234c0-0.861-0.701-1.562-1.562-1.562s-1.562,0.701-1.562,1.562v3.625    c0,0.048,0.003,0.095,0.008,0.14l-0.883,0.717v-1.103c0-0.861-0.701-1.562-1.562-1.562s-1.562,0.701-1.562,1.562v3.625    c0,0.005,0,0.01,0,0.015l-0.875,0.711V49.03c0-0.861-0.701-1.562-1.562-1.562s-1.562,0.701-1.562,1.562v3.625    c0,0.018,0.001,0.035,0.002,0.053l-0.862,0.7v-1.17c0-0.861-0.701-1.562-1.562-1.562s-1.562,0.701-1.562,1.562v3.625    c0,0.027,0.001,0.054,0.003,0.079l-0.878,0.713v-1.038c0-0.861-0.701-1.562-1.562-1.562s-1.562,0.701-1.562,1.562v3.575    l-0.875,0.711v-0.907c0-0.861-0.701-1.562-1.562-1.562s-1.562,0.701-1.562,1.562l0.01,3.436l-0.885,0.719v-1.037    c0-0.861-0.701-1.562-1.562-1.562s-1.562,0.701-1.562,1.562v3.574l-0.875,0.71v-0.905c0-0.861-0.701-1.562-1.562-1.562    s-1.562,0.701-1.562,1.562l0.01,3.435l-0.885,0.719v-0.774c0-0.861-0.701-1.562-1.562-1.562s-1.562,0.701-1.562,1.562v3.311    l-0.875,0.711v-0.896c0-0.861-0.701-1.562-1.562-1.562s-1.562,0.701-1.562,1.562v3.434l-1.791,1.454v-4.838L67.002,34.53v5.041    l-1.058,0.859v-1.366C65.944,38.203,65.243,37.502,64.382,37.502z M63.458,23.343v8.049h-0.874v-8.32L63.458,23.343z     M60.875,31.392v-9v-0.834h0.709v9.834H60.875z M59.875,22.892v8.5h-3.623v-8.5H59.875z M45.252,21.725h3.334    c0.161,0,0.313-0.078,0.407-0.209l1.259-1.764l1.259,1.764c0.094,0.131,0.246,0.209,0.407,0.209h3.334v9.667h-1.812v-3.875    c0-0.421-0.297-1.453-1.583-1.638c-0.175-0.547-0.637-1.112-1.503-1.112H50.15c-0.866,0-1.328,0.565-1.503,1.112    c-1.286,0.185-1.583,1.217-1.583,1.638v3.875h-1.812V21.725z M48.064,31.392v-3.875c0-0.068,0.028-0.666,1-0.666    c0.264,0,0.482-0.21,0.499-0.474c0.012-0.184,0.093-0.61,0.587-0.61h0.203c0.494,0,0.575,0.427,0.586,0.605    c0.012,0.268,0.232,0.479,0.5,0.479c0.905,0,0.994,0.517,1,0.666v3.875H48.064z M44.252,31.392h-3.583v-8.5h3.583V31.392z     M38.96,31.392v-9.834h0.709v0.834v9H38.96z M37.086,23.343l0.874-0.271v8.32h-0.874V23.343z M33.502,32.392h11.25h11h11.25v0.585    H55.751H44.752h-11.25V32.392z M53.667,34.559c-0.829,0-1.503,0.674-1.503,1.503v2.915h-0.41v-2.915    c0-0.829-0.674-1.503-1.502-1.503c-0.829,0-1.503,0.674-1.503,1.503v2.915h-0.41v-2.915c0-0.829-0.674-1.503-1.502-1.503    c-0.829,0-1.503,0.674-1.503,1.503v2.915h-0.082v-5h9.999v5h-0.082v-2.915C55.169,35.232,54.495,34.559,53.667,34.559z     M32.668,33.977h11.584v5H32.668V33.977z M16.562,50.233l15.105-12.685v1.928c0,0.276,0.224,0.5,0.5,0.5h12.584h1.082    c0.276,0,0.5-0.224,0.5-0.5v-3.415c0-0.277,0.226-0.503,0.503-0.503c0.276,0,0.502,0.226,0.502,0.503v3.415    c0,0.276,0.224,0.5,0.5,0.5h1.41c0.276,0,0.5-0.224,0.5-0.5v-3.415c0-0.277,0.226-0.503,0.503-0.503    c0.276,0,0.502,0.226,0.502,0.503v3.415c0,0.276,0.224,0.5,0.5,0.5h1.41c0.276,0,0.5-0.224,0.5-0.5v-3.415    c0-0.277,0.226-0.503,0.503-0.503c0.276,0,0.502,0.226,0.502,0.503v3.415c0,0.276,0.224,0.5,0.5,0.5h1.082    c0.276,0,0.5-0.224,0.5-0.5v-5.5h9.847L20.227,71.421c-0.116,0.096-0.184,0.237-0.184,0.388v5.625h-3.48V50.233z M83.562,77.434    h-61.61l1.705-1.385c0.116-0.095,0.185-0.237,0.185-0.388c0-0.025-0.003-0.056-0.008-0.086v-3.579    c0-0.311,0.252-0.562,0.562-0.562s0.562,0.252,0.562,0.562v1.946c0,0.192,0.111,0.368,0.285,0.451    c0.173,0.084,0.38,0.059,0.53-0.063l1.875-1.522c0.116-0.095,0.185-0.237,0.185-0.388v-3.549c0-0.311,0.252-0.562,0.562-0.562    s0.562,0.252,0.562,0.562v1.824c0,0.192,0.111,0.368,0.285,0.451c0.173,0.084,0.38,0.059,0.53-0.063l1.885-1.53    c0.125-0.101,0.193-0.257,0.184-0.417c-0.001-0.019-0.004-0.043-0.009-0.066v-3.577c0-0.311,0.252-0.562,0.562-0.562    s0.562,0.252,0.562,0.562v1.955c0,0.192,0.111,0.368,0.285,0.451c0.174,0.084,0.38,0.059,0.53-0.062l1.907-1.548    c0.139-0.113,0.181-0.373,0.152-0.55v-3.625c0-0.311,0.252-0.562,0.562-0.562s0.562,0.252,0.562,0.562V64.2    c0,0.192,0.111,0.368,0.285,0.451c0.173,0.084,0.38,0.06,0.53-0.063l1.885-1.53c0.124-0.101,0.192-0.256,0.184-0.416    c-0.001-0.019-0.004-0.043-0.009-0.068v-3.577c0-0.311,0.252-0.562,0.562-0.562s0.562,0.252,0.562,0.562v1.957    c0,0.192,0.111,0.368,0.285,0.451c0.173,0.084,0.381,0.06,0.53-0.063l1.907-1.549c0.138-0.112,0.18-0.374,0.152-0.55v-3.625    c0-0.311,0.252-0.562,0.562-0.562s0.562,0.252,0.562,0.562v2.088c0,0.192,0.111,0.368,0.285,0.451    c0.174,0.084,0.381,0.06,0.53-0.063l1.931-1.567c0.153-0.125,0.22-0.329,0.167-0.521c-0.001-0.002-0.037-0.14-0.038-0.142v-3.625    c0-0.311,0.252-0.562,0.562-0.562s0.562,0.252,0.562,0.562v2.22c0,0.192,0.111,0.368,0.285,0.451    c0.173,0.084,0.38,0.06,0.53-0.063l1.911-1.552c0.15-0.122,0.217-0.319,0.17-0.508c-0.001-0.005-0.035-0.126-0.036-0.131V49.03    c0-0.311,0.252-0.562,0.562-0.562s0.562,0.252,0.562,0.562v2.192c0,0.193,0.111,0.368,0.285,0.451    c0.173,0.084,0.38,0.059,0.53-0.063l1.919-1.559c0.146-0.118,0.213-0.31,0.173-0.493c-0.002-0.01-0.029-0.103-0.032-0.111v-3.625    c0-0.311,0.252-0.562,0.562-0.562s0.562,0.252,0.562,0.562v2.152c0,0.192,0.111,0.368,0.285,0.451    c0.173,0.084,0.38,0.059,0.53-0.063l1.941-1.576c0.161-0.131,0.225-0.349,0.159-0.546c-0.024-0.073-0.041-0.131-0.041-0.172    v-3.625c0-0.311,0.252-0.562,0.562-0.562s0.562,0.252,0.562,0.562v2.284c0,0.192,0.111,0.368,0.285,0.451    c0.174,0.084,0.38,0.059,0.53-0.063l1.974-1.603c0.176-0.143,0.233-0.387,0.14-0.594c-0.036-0.081-0.054-0.155-0.054-0.229v-3.625    c0-0.311,0.252-0.562,0.562-0.562s0.562,0.252,0.562,0.562v2.416c0,0.192,0.111,0.368,0.285,0.451    c0.173,0.084,0.38,0.059,0.53-0.063l2.058-1.671c0.116-0.095,0.185-0.237,0.185-0.388v-2.291l15.561,12.47V77.434z"/><path d="M24.595,57.021c0.113,0,0.228-0.038,0.321-0.117l1.621-1.361l1.621,1.361c0.094,0.079,0.208,0.117,0.321,0.117    c0.143,0,0.284-0.061,0.383-0.179c0.178-0.211,0.15-0.526-0.062-0.704l-1.942-1.631c-0.015-0.012-0.032-0.016-0.047-0.025    c-0.03-0.021-0.06-0.038-0.093-0.051c-0.027-0.011-0.055-0.019-0.083-0.024c-0.034-0.007-0.067-0.011-0.102-0.011    c-0.03,0-0.059,0.004-0.088,0.01c-0.032,0.006-0.063,0.015-0.095,0.027c-0.031,0.012-0.058,0.028-0.086,0.047    c-0.016,0.011-0.035,0.015-0.05,0.027l-1.942,1.631c-0.212,0.178-0.239,0.493-0.062,0.704    C24.311,56.96,24.452,57.021,24.595,57.021z"/><path d="M55.771,68.993c-0.015-0.013-0.033-0.017-0.049-0.026c-0.029-0.02-0.057-0.036-0.089-0.049    c-0.028-0.012-0.058-0.02-0.088-0.025c-0.033-0.007-0.065-0.011-0.099-0.011c-0.029,0-0.058,0.004-0.086,0.009    c-0.034,0.007-0.066,0.016-0.099,0.029c-0.029,0.012-0.056,0.027-0.083,0.045c-0.017,0.011-0.035,0.016-0.051,0.028l-1.621,1.361    l-1.621-1.361c-0.015-0.012-0.032-0.016-0.048-0.026c-0.029-0.02-0.059-0.036-0.091-0.05c-0.028-0.011-0.056-0.019-0.085-0.024    c-0.034-0.007-0.066-0.011-0.101-0.011c-0.029,0-0.058,0.004-0.087,0.01c-0.033,0.006-0.064,0.015-0.097,0.027    c-0.03,0.013-0.057,0.028-0.084,0.047c-0.017,0.011-0.035,0.015-0.051,0.027l-1.942,1.631c-0.212,0.178-0.239,0.493-0.062,0.704    c0.099,0.118,0.24,0.179,0.383,0.179c0.113,0,0.228-0.038,0.321-0.117l1.621-1.361l1.621,1.361    c0.023,0.02,0.051,0.029,0.077,0.044c0.019,0.011,0.035,0.024,0.056,0.032c0.061,0.025,0.124,0.041,0.188,0.041    s0.128-0.016,0.188-0.041c0.021-0.008,0.037-0.021,0.056-0.032c0.026-0.015,0.054-0.024,0.077-0.044l1.621-1.361l1.621,1.361    c0.094,0.079,0.208,0.117,0.321,0.117c0.143,0,0.284-0.061,0.383-0.179c0.178-0.211,0.15-0.526-0.062-0.704L55.771,68.993z"/><path d="M68.232,56.007c-0.015-0.013-0.032-0.016-0.048-0.026c-0.029-0.02-0.059-0.037-0.091-0.05    c-0.028-0.011-0.056-0.019-0.085-0.024c-0.034-0.007-0.066-0.011-0.101-0.011c-0.03,0-0.059,0.004-0.088,0.01    c-0.033,0.006-0.063,0.015-0.096,0.027c-0.03,0.012-0.057,0.028-0.085,0.047c-0.016,0.011-0.034,0.015-0.05,0.027l-1.621,1.361    l-1.621-1.361c-0.015-0.012-0.032-0.016-0.047-0.025c-0.03-0.021-0.061-0.038-0.094-0.051c-0.027-0.011-0.054-0.019-0.082-0.024    c-0.034-0.007-0.067-0.011-0.102-0.011c-0.031,0-0.06,0.004-0.089,0.01c-0.032,0.006-0.062,0.014-0.093,0.026    c-0.031,0.013-0.06,0.029-0.088,0.049c-0.016,0.01-0.034,0.014-0.049,0.026l-1.942,1.631c-0.212,0.178-0.239,0.493-0.062,0.704    c0.099,0.118,0.24,0.179,0.383,0.179c0.113,0,0.228-0.038,0.321-0.117l1.621-1.361l1.621,1.361    c0.023,0.02,0.051,0.029,0.077,0.044c0.019,0.011,0.035,0.024,0.056,0.032c0.061,0.025,0.124,0.041,0.188,0.041    s0.128-0.016,0.188-0.041c0.021-0.008,0.037-0.021,0.056-0.032c0.026-0.015,0.054-0.024,0.077-0.044l1.621-1.361l1.621,1.361    c0.094,0.079,0.208,0.117,0.321,0.117c0.143,0,0.284-0.061,0.383-0.179c0.178-0.211,0.15-0.526-0.062-0.704L68.232,56.007z"/><path d="M74.858,68.939c0.113,0,0.228-0.038,0.321-0.117l1.621-1.361l1.621,1.361c0.094,0.079,0.208,0.117,0.321,0.117    c0.143,0,0.284-0.061,0.383-0.179c0.178-0.211,0.15-0.526-0.062-0.704l-1.942-1.631c-0.015-0.013-0.033-0.017-0.049-0.027    c-0.029-0.019-0.057-0.035-0.089-0.048c-0.028-0.012-0.058-0.02-0.088-0.025c-0.033-0.007-0.065-0.011-0.099-0.011    c-0.029,0-0.058,0.004-0.086,0.009c-0.034,0.007-0.066,0.016-0.099,0.029c-0.029,0.012-0.056,0.027-0.083,0.045    c-0.017,0.011-0.035,0.015-0.051,0.028l-1.942,1.631c-0.212,0.178-0.239,0.493-0.062,0.704    C74.574,68.879,74.716,68.939,74.858,68.939z"/><path d="M30.226,50.061c0.113,0,0.228-0.038,0.321-0.117l1.621-1.361l1.621,1.361c0.094,0.079,0.208,0.117,0.321,0.117    c0.143,0,0.284-0.061,0.383-0.179c0.178-0.211,0.15-0.526-0.062-0.704l-1.942-1.631c-0.015-0.012-0.032-0.016-0.048-0.026    c-0.029-0.02-0.059-0.037-0.092-0.05c-0.027-0.011-0.055-0.019-0.084-0.024c-0.034-0.007-0.066-0.011-0.101-0.011    c-0.03,0-0.059,0.004-0.088,0.01c-0.032,0.006-0.063,0.015-0.095,0.027c-0.031,0.012-0.058,0.028-0.086,0.047    c-0.016,0.011-0.035,0.015-0.05,0.027l-1.942,1.631c-0.212,0.178-0.239,0.493-0.062,0.704C29.941,50,30.083,50.061,30.226,50.061z    "/><path d="M69.031,51.691c0.113,0,0.228-0.038,0.321-0.117l1.621-1.361l1.621,1.361c0.094,0.079,0.208,0.117,0.321,0.117    c0.143,0,0.284-0.061,0.383-0.179c0.178-0.211,0.15-0.526-0.062-0.704l-1.942-1.631c-0.015-0.012-0.032-0.016-0.048-0.026    c-0.029-0.02-0.06-0.037-0.092-0.05c-0.027-0.011-0.054-0.019-0.082-0.024c-0.035-0.007-0.069-0.011-0.104-0.011    c-0.028,0-0.056,0.004-0.083,0.009c-0.034,0.007-0.066,0.015-0.1,0.028c-0.029,0.013-0.056,0.028-0.083,0.047    c-0.017,0.011-0.035,0.015-0.051,0.027l-1.942,1.631c-0.212,0.178-0.239,0.493-0.062,0.704    C68.747,51.631,68.889,51.691,69.031,51.691z"/></g></g></svg>