<svg xmlns="http://www.w3.org/2000/svg" xmlns:xlink="http://www.w3.org/1999/xlink" version="1.1" x="0px" y="0px" viewBox="0 0 100 100" fill="rgba(230, 160, 196, 1)" enable-background="new 0 0 100 100" xml:space="preserve"><g><g><path d="M83.884,34.932h-0.136c0.464-0.915,0.726-2.283-0.44-3.339c-0.034-0.025-0.84-0.636-1.9-0.636    c-0.778,0-1.478,0.317-2.082,0.943c-0.533-0.131-2.137-0.736-2.577-3.313c-0.044-0.317-1.279-7.883-14.832-7.659    c-0.653-0.985-3.961-5.246-12.318-5.246s-11.665,4.261-12.318,5.246c-13.529-0.216-14.787,7.342-14.831,7.648    c-0.443,2.6-2.041,3.197-2.577,3.325c-0.604-0.627-1.305-0.944-2.083-0.944c-1.061,0-1.866,0.61-1.934,0.665    c-1.457,1.423-0.758,3.05-0.113,3.816v48.118c0,0.207,0.168,0.375,0.375,0.375h13.932h3.5h0.688h30.25h0.688h3.5h15.211    c0.207,0,0.375-0.168,0.375-0.375v-48.25C84.259,35.1,84.091,34.932,83.884,34.932z M61.068,82.017v-0.79    c0-0.207-0.168-0.375-0.375-0.375h-1.812v-0.79v-1.963h3.969v3.918H61.068z M35.86,82.017v-3.918h3.979v1.963v0.79h-1.812    c-0.207,0-0.375,0.168-0.375,0.375v0.79H35.86z M34.297,82.017l0.021-0.085h0.793v0.085H34.297z M29.36,80.27    c-0.114,0-0.223,0.053-0.294,0.143s-0.098,0.207-0.071,0.318l0.106,0.451h-12.61v-1.25h13.25    c-0.003,0.124-0.005,0.235-0.005,0.338H29.36z M35,35.682l0.984,0.951v2.549h-0.833c-0.153,0-0.29,0.093-0.348,0.234    s-0.022,0.304,0.087,0.41l1.094,1.057v34.361h-0.499c-0.207,0-0.375,0.168-0.375,0.375v1.653h-1.487    c-0.253-1.53-0.771-2.979-1.832-2.997c-1.055,0.019-1.568,1.467-1.82,2.997H16.491v-1.059h1.743c0.207,0,0.375-0.168,0.375-0.375    s-0.168-0.375-0.375-0.375h-1.743v-0.792h3.285c0.207,0,0.375-0.168,0.375-0.375s-0.168-0.375-0.375-0.375h-3.285V73.11h1.743    c0.207,0,0.375-0.168,0.375-0.375s-0.168-0.375-0.375-0.375h-1.743v-0.792h3.285c0.207,0,0.375-0.168,0.375-0.375    s-0.168-0.375-0.375-0.375h-3.285v-0.792h1.743c0.207,0,0.375-0.168,0.375-0.375s-0.168-0.375-0.375-0.375h-1.743v-0.792h3.285    c0.207,0,0.375-0.168,0.375-0.375s-0.168-0.375-0.375-0.375h-3.285v-0.78h1.743c0.207,0,0.375-0.168,0.375-0.375    s-0.168-0.375-0.375-0.375h-1.743v-0.792h3.285c0.207,0,0.375-0.168,0.375-0.375s-0.168-0.375-0.375-0.375h-3.285V63.87h1.743    c0.207,0,0.375-0.168,0.375-0.375s-0.168-0.375-0.375-0.375h-1.743v-0.792h3.285c0.207,0,0.375-0.168,0.375-0.375    s-0.168-0.375-0.375-0.375h-3.285v-0.843h1.743c0.207,0,0.375-0.168,0.375-0.375s-0.168-0.375-0.375-0.375h-1.743v-0.792h3.285    c0.207,0,0.375-0.168,0.375-0.375s-0.168-0.375-0.375-0.375h-3.285v-0.792h1.743c0.207,0,0.375-0.168,0.375-0.375    s-0.168-0.375-0.375-0.375h-1.743v-0.792h3.285c0.207,0,0.375-0.168,0.375-0.375s-0.168-0.375-0.375-0.375h-3.285v-0.78h1.743    c0.207,0,0.375-0.168,0.375-0.375s-0.168-0.375-0.375-0.375h-1.743v-0.792h3.285c0.207,0,0.375-0.168,0.375-0.375    s-0.168-0.375-0.375-0.375h-3.285v-0.792h1.743c0.207,0,0.375-0.168,0.375-0.375s-0.168-0.375-0.375-0.375h-1.743v-0.792h3.285    c0.207,0,0.375-0.168,0.375-0.375s-0.168-0.375-0.375-0.375h-3.285v-0.812h1.743c0.207,0,0.375-0.168,0.375-0.375    s-0.168-0.375-0.375-0.375h-1.743V46.85h3.285c0.207,0,0.375-0.168,0.375-0.375S19.983,46.1,19.776,46.1h-3.285v-0.792h1.743    c0.207,0,0.375-0.168,0.375-0.375s-0.168-0.375-0.375-0.375h-1.743v-0.792h3.285c0.207,0,0.375-0.168,0.375-0.375    s-0.168-0.375-0.375-0.375h-3.285v-0.853h1.743c0.207,0,0.375-0.168,0.375-0.375s-0.168-0.375-0.375-0.375h-1.743v-0.792h3.285    c0.207,0,0.375-0.168,0.375-0.375s-0.168-0.375-0.375-0.375h-3.285v-0.792h1.743c0.207,0,0.375-0.168,0.375-0.375    s-0.168-0.375-0.375-0.375h-1.743v-0.792h3.285c0.207,0,0.375-0.168,0.375-0.375s-0.168-0.375-0.375-0.375h-3.285v-1.105H35z     M57.199,35.682l1.067,1.031v2.469h-0.916c-0.153,0-0.29,0.093-0.348,0.234s-0.022,0.304,0.087,0.41l1.094,1.057v12.355    c-2.22-0.312-5.304-0.619-8.824-0.619c-3.525,0-6.612,0.309-8.833,0.621V40.883l1.094-1.057c0.109-0.106,0.145-0.269,0.087-0.41    s-0.194-0.234-0.348-0.234h-0.916v-2.469l1.067-1.031H57.199z M83.079,35.682h0.43v1.162h-3.285c-0.207,0-0.375,0.168-0.375,0.375    s0.168,0.375,0.375,0.375h3.285v0.792h-1.743c-0.207,0-0.375,0.168-0.375,0.375s0.168,0.375,0.375,0.375h1.743v0.792h-3.285    c-0.207,0-0.375,0.168-0.375,0.375s0.168,0.375,0.375,0.375h3.285v0.792h-1.743c-0.207,0-0.375,0.168-0.375,0.375    s0.168,0.375,0.375,0.375h1.743v0.853h-3.285c-0.207,0-0.375,0.168-0.375,0.375s0.168,0.375,0.375,0.375h3.285v0.792h-1.743    c-0.207,0-0.375,0.168-0.375,0.375s0.168,0.375,0.375,0.375h1.743v0.792h-3.285c-0.207,0-0.375,0.168-0.375,0.375    s0.168,0.375,0.375,0.375h3.285v0.792h-1.743c-0.207,0-0.375,0.168-0.375,0.375s0.168,0.375,0.375,0.375h1.743v0.812h-3.285    c-0.207,0-0.375,0.168-0.375,0.375s0.168,0.375,0.375,0.375h3.285v0.792h-1.743c-0.207,0-0.375,0.168-0.375,0.375    s0.168,0.375,0.375,0.375h1.743v0.792h-3.285c-0.207,0-0.375,0.168-0.375,0.375s0.168,0.375,0.375,0.375h3.285v0.792h-1.743    c-0.207,0-0.375,0.168-0.375,0.375s0.168,0.375,0.375,0.375h1.743v0.78h-3.285c-0.207,0-0.375,0.168-0.375,0.375    s0.168,0.375,0.375,0.375h3.285v0.792h-1.743c-0.207,0-0.375,0.168-0.375,0.375s0.168,0.375,0.375,0.375h1.743V58.5h-3.285    c-0.207,0-0.375,0.168-0.375,0.375s0.168,0.375,0.375,0.375h3.285v0.792h-1.743c-0.207,0-0.375,0.168-0.375,0.375    s0.168,0.375,0.375,0.375h1.743v0.843h-3.285c-0.207,0-0.375,0.168-0.375,0.375s0.168,0.375,0.375,0.375h3.285v0.792h-1.743    c-0.207,0-0.375,0.168-0.375,0.375s0.168,0.375,0.375,0.375h1.743v0.792h-3.285c-0.207,0-0.375,0.168-0.375,0.375    s0.168,0.375,0.375,0.375h3.285v0.792h-1.743c-0.207,0-0.375,0.168-0.375,0.375s0.168,0.375,0.375,0.375h1.743v0.78h-3.285    c-0.207,0-0.375,0.168-0.375,0.375s0.168,0.375,0.375,0.375h3.285v0.792h-1.743c-0.207,0-0.375,0.168-0.375,0.375    s0.168,0.375,0.375,0.375h1.743v0.792h-3.285c-0.207,0-0.375,0.168-0.375,0.375s0.168,0.375,0.375,0.375h3.285v0.792h-1.743    c-0.207,0-0.375,0.168-0.375,0.375s0.168,0.375,0.375,0.375h1.743v0.812h-3.285c-0.207,0-0.375,0.168-0.375,0.375    s0.168,0.375,0.375,0.375h3.285v0.792h-1.743c-0.207,0-0.375,0.168-0.375,0.375s0.168,0.375,0.375,0.375h1.743v1.002H68.748    c-0.253-1.53-0.771-2.979-1.832-2.997c-1.055,0.019-1.568,1.467-1.82,2.997H63.6v-1.653c0-0.207-0.168-0.375-0.375-0.375h-0.499    V40.883l1.094-1.057c0.109-0.106,0.145-0.269,0.087-0.41s-0.194-0.234-0.348-0.234h-0.833v-2.549l0.984-0.951H83.079z     M68.853,78.022h14.656v1.159H68.95C68.931,78.822,68.898,78.427,68.853,78.022z M36.734,36.849h2.959v2.333h-2.959V36.849z     M52.111,53.433l-0.462,2.692h-1.915v-2.753C50.555,53.378,51.349,53.398,52.111,53.433z M59.017,36.849h2.959v2.333h-2.959    V36.849z M45.422,79.687v-3.692h3.562v3.692H45.422z M40.589,79.687v-1.963v-2.104V65.182h5.952    c-1.832,1.211-1.869,3.469-1.869,3.5v11.005H40.589z M40.432,39.932L40,40.349h-3.489l-0.432-0.417h0.28h3.709H40.432z     M36.734,41.099h3.042v12.252c-1.791,0.274-2.855,0.523-2.879,0.528c-0.062,0.015-0.117,0.046-0.163,0.088V41.099z M39.695,54.121    l1.089,2.004h-2.049l-1.124-1.632C38.057,54.402,38.771,54.267,39.695,54.121z M41.191,56.875l0.913,1.682h-1.693l-1.159-1.682    H41.191z M62.199,40.349H58.71l-0.432-0.417h0.363h3.709h0.28L62.199,40.349z M61.976,41.099v12.86    c-0.044-0.037-0.097-0.066-0.154-0.08c-0.023-0.005-1.091-0.255-2.888-0.53v-12.25H61.976z M59.022,54.121    c0.925,0.146,1.64,0.281,2.085,0.372l-1.124,1.632h-2.049L59.022,54.121z M59.467,56.875l-1.159,1.682h-1.693l0.913-1.682H59.467z     M48.984,67.837h-3.437c0.257-0.986,1.049-2.487,3.437-2.635V67.837z M45.422,68.683c0-0.011,0.002-0.048,0.004-0.096h3.559v4.75    c-1.744,0.093-2.907,0.771-3.562,1.337V68.683z M48.984,74.075v1.169h-3.083C46.452,74.767,47.452,74.163,48.984,74.075z     M49.734,74.081c0.708,0.063,2.243,0.299,3.138,1.163h-3.138V74.081z M49.734,73.327v-4.74h3.559    c0.003,0.047,0.004,0.084,0.004,0.095v5.941C52.192,73.636,50.488,73.388,49.734,73.327z M49.734,67.837v-2.635    c2.388,0.147,3.18,1.648,3.437,2.635H49.734z M40.589,59.307h4.083v2.812c0,0.207,0.168,0.375,0.375,0.375    s0.375-0.168,0.375-0.375v-2.812h3.562v2.812c0,0.207,0.168,0.375,0.375,0.375s0.375-0.168,0.375-0.375v-2.812h3.562v2.812    c0,0.207,0.168,0.375,0.375,0.375s0.375-0.168,0.375-0.375v-2.812h4.074v5.125H40.589V59.307z M55.762,58.557h-1.558l0.601-1.682    h1.87L55.762,58.557z M53.407,58.557h-1.416l0.289-1.682h1.728L53.407,58.557z M51.231,58.557h-1.497v-1.682h1.786L51.231,58.557z     M48.984,58.557h-1.497l-0.289-1.682h1.786V58.557z M46.728,58.557h-1.416l-0.601-1.682h1.728L46.728,58.557z M44.515,58.557    h-1.558l-0.913-1.682h1.87L44.515,58.557z M49.734,75.994h3.562v3.692h-3.562V75.994z M52.178,65.182h5.953V75.57    c-0.002,0.017-0.01,0.031-0.01,0.049v2.104c0,0.018,0.008,0.032,0.01,0.048v1.915h-4.084V68.682    C54.047,68.65,54.01,66.393,52.178,65.182z M58.871,64.758v-5.697l3.104-4.506v20.689h-3.095V64.807    C58.881,64.789,58.873,64.774,58.871,64.758z M58.235,54.003l-1.153,2.122h-2.01l0.859-2.407    C56.777,53.807,57.552,53.905,58.235,54.003z M54.275,56.125h-1.866l0.456-2.653c0.806,0.046,1.576,0.103,2.297,0.17    L54.275,56.125z M48.984,56.125h-1.915l-0.462-2.692c0.763-0.034,1.557-0.055,2.377-0.061V56.125z M45.854,53.472l0.456,2.653    h-1.866l-0.887-2.483C44.277,53.574,45.048,53.517,45.854,53.472z M42.787,53.718l0.859,2.407h-2.01l-1.153-2.122    C41.167,53.904,41.94,53.807,42.787,53.718z M36.734,54.542l3.104,4.506v5.759v10.438h-3.104V54.542z M36.359,75.994h3.479v1.354    H35.86v-1.354H36.359z M40.589,80.437h4.458h8.625h4.459v0.415H40.589V80.437z M58.881,75.994h3.47h0.499v1.354h-3.969V75.994z     M63.6,78.022h1.393c-0.046,0.404-0.077,0.8-0.098,1.159H63.6V78.022z M62.199,36.099H58.71l-0.432-0.417h4.353L62.199,36.099z     M40,36.099h-3.489l-0.432-0.417h4.353L40,36.099z M33.728,78.022h1.383v1.159h-1.285C33.806,78.822,33.773,78.427,33.728,78.022z     M16.491,78.022h13.376c-0.046,0.404-0.077,0.8-0.098,1.159H16.491V78.022z M30.498,79.738c0.031-0.055,0.054-0.114,0.054-0.182    c0-0.059-0.016-0.111-0.04-0.161c0.105-2.067,0.514-4.356,1.279-4.37c0.889,0.016,1.298,3.012,1.319,5.244h-2.625    C30.487,80.097,30.492,79.918,30.498,79.738z M33.854,79.932h1.256v1.25h-0.616l0.106-0.451c0.026-0.111,0-0.229-0.071-0.318    s-0.18-0.143-0.294-0.143h-0.376C33.859,80.167,33.857,80.056,33.854,79.932z M38.402,81.602h1.812h18.292h1.812v0.415H38.402    V81.602z M63.6,81.932h0.804l0.021,0.085H63.6V81.932z M64.485,80.27c-0.114,0-0.223,0.053-0.294,0.143s-0.098,0.207-0.071,0.318    l0.106,0.451H63.6v-1.25h1.267c-0.003,0.124-0.005,0.235-0.005,0.338H64.485z M65.799,77.656c0-0.003,0.002-0.006,0.002-0.009    c0-0.001,0-0.001,0-0.001c0.201-1.431,0.566-2.611,1.115-2.621c0.889,0.016,1.298,3.012,1.319,5.244H65.61    C65.618,79.439,65.68,78.505,65.799,77.656z M69.654,80.412c-0.071-0.09-0.18-0.143-0.294-0.143h-0.376    c0-0.103-0.002-0.214-0.005-0.338h14.529v1.25h-13.89l0.106-0.451C69.752,80.619,69.726,80.502,69.654,80.412z M16.345,32.188    c0.006-0.004,0.647-0.48,1.443-0.48c0.615,0,1.175,0.285,1.663,0.847c0.08,0.092,0.212,0.136,0.32,0.127    c0.114-0.012,2.792-0.321,3.418-3.987c0.043-0.294,1.272-7.308,14.286-7.011c0.145-0.007,0.267-0.069,0.335-0.189    c0.028-0.051,3.001-5.062,11.787-5.062s11.759,5.011,11.787,5.062c0.069,0.12,0.21,0.186,0.335,0.189    c0.288-0.007,0.568-0.011,0.846-0.011c12.261,0,13.398,6.734,13.441,7.031c0.625,3.656,3.303,3.966,3.417,3.978    c0.111,0.005,0.24-0.036,0.32-0.127c0.488-0.562,1.048-0.847,1.663-0.847c0.786,0,1.418,0.462,1.421,0.462    c1.08,0.979,0.348,2.321,0.057,2.763H81.65c0.526-0.215,0.731-0.572,0.735-0.582c0.512-0.753,0.092-1.46-0.264-1.774    c-0.397-0.236-0.727-0.208-0.934-0.14c-0.487,0.158-0.708,0.643-0.732,0.697c-0.082,0.189,0.006,0.41,0.196,0.493    c0.188,0.081,0.411-0.006,0.493-0.196c0.019-0.044,0.128-0.233,0.274-0.281c0.033-0.009,0.129-0.042,0.255,0.023    c0.062,0.059,0.354,0.369,0.072,0.785c-0.018,0.031-0.471,0.754-2.149,0.136c-1.187-0.437-1.457-0.872-1.459-0.872    c0,0,0,0,0,0.001c-0.088-0.189-0.314-0.268-0.498-0.18c-0.188,0.088-0.269,0.312-0.18,0.498c0.053,0.114,0.396,0.711,1.877,1.256    c0.173,0.063,0.32,0.094,0.476,0.136H63.559h-6.208H41.359h-6.208H19.608c0.075-0.024,0.138-0.032,0.216-0.062    c1.481-0.545,1.824-1.142,1.877-1.256c0.086-0.182,0.009-0.392-0.169-0.484c-0.183-0.096-0.403-0.021-0.502,0.151    c-0.003,0.005-0.267,0.444-1.466,0.886c-1.681,0.617-2.132-0.106-2.167-0.165c-0.264-0.387,0.028-0.697,0.025-0.708    c0.188-0.111,0.284-0.081,0.316-0.071c0.143,0.044,0.252,0.225,0.279,0.284c0.083,0.189,0.305,0.273,0.491,0.193    c0.19-0.083,0.278-0.304,0.196-0.493c-0.024-0.055-0.245-0.539-0.732-0.697c-0.209-0.067-0.536-0.096-0.995,0.186    c-0.294,0.269-0.714,0.976-0.224,1.691c0.014,0.026,0.178,0.325,0.591,0.545h-1.057C15.986,34.55,15.187,33.322,16.345,32.188z     M16.491,81.932h12.787l0.296,1.25H16.491V81.932z M30.345,83.182l-0.511-2.162h0.276h3.375h0.276l-0.511,2.162H30.345z     M34.61,83.182v-0.415h3.417h22.666h3.417v0.415H34.61z M65.47,83.182l-0.511-2.162h0.276h3.375h0.276l-0.511,2.162H65.47z     M69.146,83.182l0.296-1.25h14.066v1.25H69.146z"/><path d="M38.287,69.432c-0.207,0-0.375,0.168-0.375,0.375v3.876c0,0.207,0.168,0.375,0.375,0.375s0.375-0.168,0.375-0.375v-3.876    C38.662,69.6,38.494,69.432,38.287,69.432z"/><path d="M38.287,47.591c0.207,0,0.375-0.168,0.375-0.375v-4.157c0-0.207-0.168-0.375-0.375-0.375s-0.375,0.168-0.375,0.375v4.157    C37.912,47.423,38.08,47.591,38.287,47.591z"/><path d="M60.423,74.058c0.207,0,0.375-0.168,0.375-0.375v-3.876c0-0.207-0.168-0.375-0.375-0.375s-0.375,0.168-0.375,0.375v3.876    C60.048,73.89,60.216,74.058,60.423,74.058z"/><path d="M60.423,47.591c0.207,0,0.375-0.168,0.375-0.375v-4.157c0-0.207-0.168-0.375-0.375-0.375s-0.375,0.168-0.375,0.375v4.157    C60.048,47.423,60.216,47.591,60.423,47.591z"/><path d="M42.422,51.932h14.125c0.207,0,0.375-0.168,0.375-0.375v-1.125c0-0.207-0.168-0.375-0.375-0.375h-1.132v-6.077    c0.325-0.523,1.697-2.934,0.655-4.905c-0.692-1.311-2.296-2.091-4.745-2.35c-0.01-0.001-0.019-0.006-0.028-0.006    c-0.003,0-0.006,0.002-0.008,0.002c-0.527-0.055-1.079-0.094-1.685-0.099c-0.017-0.002-0.033-0.003-0.05-0.003h-0.14    c-0.017,0-0.033,0.001-0.05,0.003c-0.68,0.006-1.296,0.052-1.877,0.119c-0.007,0-0.013-0.004-0.02-0.004    c-0.023,0-0.045,0.01-0.067,0.014c-2.312,0.284-3.832,1.057-4.502,2.323c-1.042,1.972,0.33,4.382,0.655,4.905v6.077h-1.133    c-0.207,0-0.375,0.168-0.375,0.375v1.125C42.047,51.764,42.215,51.932,42.422,51.932z M47.844,50.057v-8.188h3.078v8.188H47.844z     M51.672,44.244h2.993v5.812h-2.993V44.244z M55.405,39.423c0.803,1.515-0.237,3.498-0.575,4.071h-3.158v-5.985    C53.616,37.771,54.87,38.412,55.405,39.423z M49.417,37.372c0.03,0,0.061-0.003,0.093-0.003c0.015,0.002,0.028,0.003,0.043,0.003    c0.488,0.003,0.938,0.027,1.369,0.062v3.685h-3.078v-3.664C48.334,37.408,48.85,37.376,49.417,37.372z M43.564,39.423    c0.516-0.974,1.705-1.6,3.529-1.88v5.951H44.14C43.802,42.921,42.762,40.938,43.564,39.423z M44.305,44.244h2.789v5.812h-2.789    V44.244z M42.797,50.807h1.133h7.275c0.03,0.008,0.06,0.019,0.092,0.019s0.062-0.011,0.092-0.019h3.651h1.132v0.375H42.797V50.807    z"/><path d="M22.234,41.432h11.188c0.207,0,0.375-0.168,0.375-0.375v-3.625c0-0.207-0.168-0.375-0.375-0.375H22.234    c-0.207,0-0.375,0.168-0.375,0.375v3.625C21.859,41.264,22.027,41.432,22.234,41.432z M22.609,37.807h10.438v2.875H22.609V37.807z    "/><path d="M22.764,46.068v3.105c-0.503,0.62-1.315,1.983-1.352,2.045c-0.028,0.047-0.046,0.1-0.051,0.154    c-0.043,0.431,0.104,0.694,0.236,0.84c0.178,0.197,0.44,0.312,0.766,0.337v2.485c0,0.207,0.168,0.375,0.375,0.375h2.16    c0.994,0.812,2.389,0.878,2.804,0.878l0.106-0.004l0.149,0.004c0.55,0,1.89-0.089,2.807-0.878h2.153    c0.207,0,0.375-0.168,0.375-0.375V52.55c0.325-0.025,0.588-0.14,0.766-0.337c0.132-0.146,0.279-0.409,0.236-0.84    c-0.005-0.055-0.022-0.107-0.051-0.154c-0.036-0.062-0.849-1.425-1.352-2.045v-3.105l1.301-1.267    c0.033-0.033,0.318-0.331,0.273-0.726c-0.02-0.175-0.112-0.426-0.521-0.667c-0.017-0.006-0.077-0.024-0.163-0.036l0.001-0.713    c0-0.1-0.039-0.194-0.109-0.265s-0.166-0.11-0.266-0.11h-2.299h-6.625h-2.236c-0.1,0-0.195,0.04-0.266,0.11    s-0.109,0.165-0.109,0.265l0.001,0.714c-0.093,0.015-0.174,0.042-0.245,0.073c-0.327,0.203-0.42,0.454-0.439,0.629    c-0.045,0.395,0.24,0.692,0.276,0.729L22.764,46.068z M30.734,43.035v7.584h-2.531v-7.584H30.734z M27.453,43.035v7.584h-2.594    v-7.584H27.453z M22.021,44.104c0.115,0.086,0.267,0.103,0.395,0.038c0.128-0.062,0.209-0.193,0.209-0.336l-0.001-0.771h1.486    v7.959c0,0.207,0.168,0.375,0.375,0.375h6.625c0.207,0,0.375-0.168,0.375-0.375v-7.959h1.549l-0.001,0.771    c0,0.143,0.071,0.278,0.199,0.342c0.126,0.063,0.271,0.055,0.385-0.033c0,0,0.037,0.003,0.066,0.006    c0.031,0.025,0.039,0.04,0.039,0.04c0.001,0.021-0.028,0.078-0.055,0.106l-1.411,1.374c-0.072,0.07-0.113,0.167-0.113,0.269v3.401    c0,0.092,0.034,0.181,0.095,0.25c0.383,0.429,1.123,1.643,1.315,1.962c0,0.07-0.011,0.144-0.05,0.187    c-0.054,0.059-0.183,0.095-0.345,0.095c-0.092,0-0.161-0.012-0.17-0.013c-0.111-0.023-0.224,0.008-0.31,0.079    s-0.136,0.178-0.136,0.289v2.5h-1.924c-0.098,0-0.191,0.038-0.261,0.105c-0.739,0.717-2.023,0.772-2.4,0.772l-0.149-0.002    l-0.106,0.002c-0.363,0-1.613-0.057-2.413-0.781c-0.069-0.062-0.159-0.097-0.252-0.097h-1.924v-2.5    c0-0.111-0.05-0.216-0.136-0.287c-0.083-0.071-0.192-0.1-0.308-0.082c-0.011,0.002-0.08,0.014-0.172,0.014    c-0.162,0-0.291-0.036-0.345-0.095c-0.039-0.043-0.05-0.116-0.05-0.187c0.192-0.319,0.933-1.533,1.315-1.962    c0.061-0.069,0.095-0.158,0.095-0.25V45.91c0-0.102-0.041-0.198-0.113-0.269l-1.404-1.367c-0.033-0.036-0.062-0.093-0.062-0.11    C21.934,44.164,21.947,44.132,22.021,44.104z"/><path d="M24.484,54.257h6.625c0.207,0,0.375-0.168,0.375-0.375v-1.776c0-0.207-0.168-0.375-0.375-0.375h-6.625    c-0.207,0-0.375,0.168-0.375,0.375v1.776C24.109,54.089,24.277,54.257,24.484,54.257z M27.453,53.507h-0.875V52.48h0.875V53.507z     M28.203,52.48h0.875v1.026h-0.875V52.48z M30.734,53.507h-0.906V52.48h0.906V53.507z M24.859,52.48h0.969v1.026h-0.969V52.48z"/><path d="M22.764,64.234v3.105c-0.503,0.62-1.315,1.983-1.352,2.045c-0.028,0.047-0.046,0.1-0.051,0.154    c-0.043,0.431,0.104,0.694,0.236,0.84c0.178,0.197,0.44,0.312,0.766,0.337v2.485c0,0.207,0.168,0.375,0.375,0.375h2.16    c0.994,0.812,2.389,0.878,2.804,0.878l0.106-0.004l0.149,0.004c0.55,0,1.89-0.089,2.807-0.878h2.153    c0.207,0,0.375-0.168,0.375-0.375v-2.485c0.325-0.025,0.588-0.14,0.766-0.337c0.132-0.146,0.279-0.409,0.236-0.84    c-0.005-0.055-0.022-0.107-0.051-0.154c-0.036-0.062-0.849-1.425-1.352-2.045v-3.105l1.301-1.267    c0.033-0.033,0.318-0.331,0.273-0.726c-0.02-0.175-0.112-0.426-0.521-0.667c-0.017-0.006-0.077-0.024-0.163-0.036l0.001-0.713    c0-0.1-0.039-0.194-0.109-0.265s-0.166-0.11-0.266-0.11h-2.299h-6.625h-2.236c-0.1,0-0.195,0.04-0.266,0.11    s-0.109,0.165-0.109,0.265l0.001,0.714c-0.093,0.015-0.174,0.042-0.245,0.073c-0.327,0.203-0.42,0.454-0.439,0.629    c-0.045,0.395,0.24,0.692,0.276,0.729L22.764,64.234z M30.734,61.201v7.584h-2.531v-7.584H30.734z M27.453,61.201v7.584h-2.594    v-7.584H27.453z M22.021,62.271c0.115,0.087,0.267,0.102,0.395,0.038c0.128-0.062,0.209-0.193,0.209-0.336l-0.001-0.771h1.486    v7.959c0,0.207,0.168,0.375,0.375,0.375h6.625c0.207,0,0.375-0.168,0.375-0.375v-7.959h1.549l-0.001,0.771    c0,0.143,0.071,0.278,0.199,0.342c0.126,0.063,0.271,0.055,0.385-0.033c0,0,0.037,0.003,0.066,0.006    c0.031,0.025,0.039,0.04,0.039,0.04c0.001,0.021-0.028,0.078-0.055,0.106l-1.411,1.374c-0.072,0.07-0.113,0.167-0.113,0.269v3.401    c0,0.092,0.034,0.181,0.095,0.25c0.383,0.429,1.123,1.643,1.315,1.962c0,0.07-0.011,0.144-0.05,0.187    c-0.054,0.059-0.183,0.095-0.345,0.095c-0.092,0-0.161-0.012-0.17-0.013c-0.111-0.024-0.224,0.009-0.31,0.079    c-0.086,0.071-0.136,0.178-0.136,0.289v2.5h-1.924c-0.098,0-0.191,0.038-0.261,0.105c-0.739,0.717-2.023,0.772-2.4,0.772    l-0.149-0.002l-0.106,0.002c-0.363,0-1.613-0.057-2.413-0.781c-0.069-0.062-0.159-0.097-0.252-0.097h-1.924v-2.5    c0-0.111-0.05-0.216-0.136-0.287c-0.083-0.071-0.192-0.1-0.308-0.082c-0.011,0.002-0.08,0.014-0.172,0.014    c-0.162,0-0.291-0.036-0.345-0.095c-0.039-0.043-0.05-0.116-0.05-0.187c0.192-0.319,0.933-1.533,1.315-1.962    c0.061-0.069,0.095-0.158,0.095-0.25v-3.401c0-0.102-0.041-0.198-0.113-0.269l-1.404-1.367c-0.033-0.036-0.062-0.093-0.062-0.11    C21.934,62.33,21.947,62.298,22.021,62.271z"/><path d="M24.484,72.423h6.625c0.207,0,0.375-0.168,0.375-0.375v-1.776c0-0.207-0.168-0.375-0.375-0.375h-6.625    c-0.207,0-0.375,0.168-0.375,0.375v1.776C24.109,72.255,24.277,72.423,24.484,72.423z M27.453,71.673h-0.875v-1.026h0.875V71.673z     M28.203,70.646h0.875v1.026h-0.875V70.646z M30.734,71.673h-0.906v-1.026h0.906V71.673z M24.859,70.646h0.969v1.026h-0.969    V70.646z"/><path d="M65.372,41.4H76.56c0.207,0,0.375-0.168,0.375-0.375V37.4c0-0.207-0.168-0.375-0.375-0.375H65.372    c-0.207,0-0.375,0.168-0.375,0.375v3.625C64.997,41.232,65.165,41.4,65.372,41.4z M65.747,37.775h10.438v2.875H65.747V37.775z"/><path d="M65.901,46.037v3.105c-0.503,0.62-1.315,1.983-1.352,2.045c-0.028,0.047-0.046,0.1-0.051,0.154    c-0.043,0.431,0.104,0.694,0.236,0.84c0.178,0.197,0.44,0.312,0.766,0.337v2.485c0,0.207,0.168,0.375,0.375,0.375h2.16    c0.994,0.812,2.389,0.878,2.804,0.878l0.106-0.004l0.149,0.004c0.55,0,1.89-0.089,2.807-0.878h2.153    c0.207,0,0.375-0.168,0.375-0.375v-2.485c0.325-0.025,0.588-0.14,0.766-0.337c0.132-0.146,0.279-0.409,0.236-0.84    c-0.005-0.055-0.022-0.107-0.051-0.154c-0.036-0.062-0.849-1.425-1.352-2.045v-3.105l1.301-1.267    c0.033-0.033,0.318-0.331,0.273-0.726c-0.02-0.175-0.112-0.426-0.521-0.667c-0.017-0.006-0.077-0.024-0.163-0.036l0.001-0.713    c0-0.1-0.039-0.194-0.109-0.265s-0.166-0.11-0.266-0.11h-2.299h-6.625h-2.236c-0.1,0-0.195,0.04-0.266,0.11    s-0.109,0.165-0.109,0.265l0.001,0.714c-0.093,0.015-0.174,0.042-0.245,0.073c-0.327,0.203-0.42,0.454-0.439,0.629    c-0.045,0.395,0.24,0.692,0.276,0.729L65.901,46.037z M73.872,43.004v7.584h-2.531v-7.584H73.872z M70.591,43.004v7.584h-2.594    v-7.584H70.591z M65.158,44.073c0.114,0.086,0.267,0.102,0.395,0.038c0.128-0.062,0.209-0.193,0.209-0.336l-0.001-0.771h1.486    v7.959c0,0.207,0.168,0.375,0.375,0.375h6.625c0.207,0,0.375-0.168,0.375-0.375v-7.959h1.549l-0.001,0.771    c0,0.143,0.071,0.278,0.199,0.342c0.126,0.063,0.271,0.055,0.385-0.033c0,0,0.037,0.003,0.066,0.006    c0.031,0.025,0.039,0.04,0.039,0.04c0.001,0.021-0.028,0.078-0.055,0.106l-1.411,1.374c-0.072,0.07-0.113,0.167-0.113,0.269v3.401    c0,0.092,0.034,0.181,0.095,0.25c0.383,0.429,1.123,1.643,1.315,1.962c0,0.07-0.011,0.144-0.05,0.187    c-0.054,0.059-0.183,0.095-0.345,0.095c-0.092,0-0.161-0.012-0.17-0.013c-0.11-0.024-0.223,0.008-0.31,0.079    c-0.086,0.071-0.136,0.178-0.136,0.289v2.5h-1.924c-0.098,0-0.191,0.038-0.261,0.105c-0.739,0.717-2.023,0.772-2.4,0.772    l-0.149-0.002l-0.106,0.002c-0.363,0-1.613-0.057-2.413-0.781c-0.069-0.062-0.159-0.097-0.252-0.097h-1.924v-2.5    c0-0.111-0.05-0.216-0.136-0.287c-0.084-0.071-0.191-0.101-0.308-0.082c-0.011,0.002-0.08,0.014-0.172,0.014    c-0.162,0-0.291-0.036-0.345-0.095c-0.039-0.043-0.05-0.116-0.05-0.187c0.192-0.319,0.933-1.533,1.315-1.962    c0.061-0.069,0.095-0.158,0.095-0.25v-3.401c0-0.102-0.041-0.198-0.113-0.269l-1.404-1.367c-0.033-0.036-0.062-0.093-0.062-0.11    C65.071,44.133,65.085,44.101,65.158,44.073z"/><path d="M67.622,54.226h6.625c0.207,0,0.375-0.168,0.375-0.375v-1.776c0-0.207-0.168-0.375-0.375-0.375h-6.625    c-0.207,0-0.375,0.168-0.375,0.375v1.776C67.247,54.058,67.415,54.226,67.622,54.226z M70.591,53.476h-0.875v-1.026h0.875V53.476z     M71.341,52.449h0.875v1.026h-0.875V52.449z M73.872,53.476h-0.906v-1.026h0.906V53.476z M67.997,52.449h0.969v1.026h-0.969    V52.449z"/><path d="M65.901,64.203v3.105c-0.503,0.62-1.315,1.983-1.352,2.045c-0.028,0.047-0.046,0.1-0.051,0.154    c-0.043,0.431,0.104,0.694,0.236,0.84c0.178,0.197,0.44,0.312,0.766,0.337v2.485c0,0.207,0.168,0.375,0.375,0.375h2.16    c0.994,0.812,2.389,0.878,2.804,0.878l0.106-0.004l0.149,0.004c0.55,0,1.89-0.089,2.807-0.878h2.153    c0.207,0,0.375-0.168,0.375-0.375v-2.485c0.325-0.025,0.588-0.14,0.766-0.337c0.132-0.146,0.279-0.409,0.236-0.84    c-0.005-0.055-0.022-0.107-0.051-0.154c-0.036-0.062-0.849-1.425-1.352-2.045v-3.105l1.301-1.267    c0.033-0.033,0.318-0.331,0.273-0.726c-0.02-0.175-0.112-0.426-0.521-0.667c-0.017-0.006-0.077-0.024-0.163-0.036l0.001-0.713    c0-0.1-0.039-0.194-0.109-0.265s-0.166-0.11-0.266-0.11h-2.299h-6.625h-2.236c-0.1,0-0.195,0.04-0.266,0.11    s-0.109,0.165-0.109,0.265l0.001,0.714c-0.093,0.015-0.174,0.042-0.245,0.073c-0.327,0.203-0.42,0.454-0.439,0.629    c-0.045,0.395,0.24,0.692,0.276,0.729L65.901,64.203z M73.872,61.17v7.584h-2.531V61.17H73.872z M70.591,61.17v7.584h-2.594V61.17    H70.591z M65.158,62.239c0.114,0.086,0.267,0.103,0.395,0.038c0.128-0.062,0.209-0.193,0.209-0.336l-0.001-0.771h1.486v7.959    c0,0.207,0.168,0.375,0.375,0.375h6.625c0.207,0,0.375-0.168,0.375-0.375V61.17h1.549l-0.001,0.771    c0,0.143,0.071,0.278,0.199,0.342c0.126,0.063,0.271,0.055,0.385-0.033c0,0,0.037,0.003,0.066,0.006    c0.031,0.025,0.039,0.04,0.039,0.04c0.001,0.021-0.028,0.078-0.055,0.106l-1.411,1.374c-0.072,0.07-0.113,0.167-0.113,0.269v3.401    c0,0.092,0.034,0.181,0.095,0.25c0.383,0.429,1.123,1.643,1.315,1.962c0,0.07-0.011,0.144-0.05,0.187    c-0.054,0.059-0.183,0.095-0.345,0.095c-0.092,0-0.161-0.012-0.17-0.013c-0.11-0.023-0.223,0.008-0.31,0.079    c-0.086,0.071-0.136,0.178-0.136,0.289v2.5h-1.924c-0.098,0-0.191,0.038-0.261,0.105c-0.739,0.717-2.023,0.772-2.4,0.772    l-0.149-0.002l-0.106,0.002c-0.363,0-1.613-0.057-2.413-0.781c-0.069-0.062-0.159-0.097-0.252-0.097h-1.924v-2.5    c0-0.111-0.05-0.216-0.136-0.287c-0.084-0.071-0.191-0.101-0.308-0.082c-0.011,0.002-0.08,0.014-0.172,0.014    c-0.162,0-0.291-0.036-0.345-0.095c-0.039-0.043-0.05-0.116-0.05-0.187c0.192-0.319,0.933-1.533,1.315-1.962    c0.061-0.069,0.095-0.158,0.095-0.25v-3.401c0-0.102-0.041-0.198-0.113-0.269l-1.404-1.367c-0.033-0.036-0.062-0.093-0.062-0.11    C65.071,62.299,65.085,62.267,65.158,62.239z"/><path d="M67.622,72.392h6.625c0.207,0,0.375-0.168,0.375-0.375V70.24c0-0.207-0.168-0.375-0.375-0.375h-6.625    c-0.207,0-0.375,0.168-0.375,0.375v1.776C67.247,72.224,67.415,72.392,67.622,72.392z M70.591,71.642h-0.875v-1.026h0.875V71.642z     M71.341,70.615h0.875v1.026h-0.875V70.615z M73.872,71.642h-0.906v-1.026h0.906V71.642z M67.997,70.615h0.969v1.026h-0.969    V70.615z"/><path d="M34.287,32.152c1.186-0.7,3.131-1.554,3.731-1.245c0.065,0.032,0.128,0.086,0.146,0.254    c0.006,0.052,0.01,0.076,0.036,0.121c0.042,0.118-0.031,0.573-0.869,1.255c-0.247,0.201-0.761,0.618-0.543,1.055    c0.049,0.099,0.156,0.313,0.683,0.313c0.214,0,0.497-0.036,0.874-0.129c0.034-0.009,0.067-0.021,0.098-0.039    c0.024-0.015,2.247-1.287,3.76-1.628v0.614c0,0.12,0.061,0.223,0.148,0.291l0.976,1.122c0.071,0.082,0.175,0.129,0.283,0.129    h11.541c0.108,0,0.212-0.047,0.283-0.129l1.015-1.167c0.083-0.096,0.099-0.223,0.066-0.341v-0.52    c1.512,0.342,3.735,1.613,3.76,1.628c0.03,0.018,0.063,0.03,0.098,0.039c0.377,0.093,0.66,0.129,0.874,0.129    c0.526,0,0.634-0.215,0.683-0.313c0.218-0.437-0.296-0.854-0.543-1.055c-0.838-0.682-0.911-1.137-0.882-1.229    c0.026-0.045,0.043-0.096,0.049-0.147c0.019-0.168,0.081-0.222,0.146-0.254c0.603-0.305,2.545,0.547,3.733,1.246    c3.912,2.276,6.044,0.451,6.132,0.372c0.154-0.137,0.168-0.371,0.032-0.526c-0.135-0.153-0.371-0.171-0.528-0.036    c-0.072,0.064-1.842,1.532-5.257-0.457c-0.536-0.316-3.274-1.863-4.448-1.27c-0.215,0.107-0.48,0.331-0.549,0.786    c-0.096,0.263-0.21,1.033,1.099,2.097c-0.102-0.015-0.209-0.035-0.312-0.06c-0.363-0.206-2.547-1.411-4.087-1.708v-0.878    c0-0.207-0.168-0.375-0.375-0.375H42.578c-0.207,0-0.375,0.168-0.375,0.375v0.878c-1.54,0.297-3.725,1.503-4.087,1.708    c-0.103,0.024-0.211,0.045-0.312,0.061c0.001-0.001,0.001-0.001,0.001-0.001c1.309-1.063,1.194-1.834,1.099-2.097    c-0.068-0.455-0.334-0.679-0.549-0.786c-1.179-0.594-3.912,0.953-4.446,1.269c-3.406,1.984-5.176,0.53-5.259,0.458    c-0.152-0.136-0.391-0.12-0.527,0.033c-0.138,0.155-0.124,0.392,0.031,0.529C28.241,32.604,30.373,34.432,34.287,32.152z     M54.98,33.516H43.781l-0.362-0.417h11.924L54.98,33.516z M42.953,30.849h12.812v1.5H42.953V30.849z"/><path d="M40.694,23.36c0.306,0.079,1.575,0.229,3.65-1.763c0.177-0.164,0.363-0.326,0.538-0.468    c-0.975,1.783-0.853,2.28-0.569,2.546c0.124,0.115,0.27,0.163,0.43,0.163c0.359,0,0.789-0.24,1.186-0.501    c0.525-0.34,2.1-1.224,3.056-1.224h1.041c0.954,0,2.529,0.884,3.054,1.223c0.576,0.378,1.216,0.714,1.617,0.339    c0.283-0.266,0.405-0.763-0.569-2.546c0.173,0.141,0.358,0.301,0.533,0.463c2.079,1.995,3.349,1.848,3.655,1.768    c0.52-0.045,0.737-0.298,0.829-0.505c0.29-0.654-0.388-1.582-0.627-1.878c-2.979-3.063-7.3-3.511-7.482-3.528    c-0.225-0.014-0.39,0.13-0.409,0.337c-0.021,0.206,0.131,0.39,0.337,0.409c0.042,0.004,4.234,0.443,6.993,3.278    c0.318,0.399,0.567,0.934,0.503,1.078c-0.004,0.011-0.06,0.053-0.325,0.081c-0.01,0-1.031,0.264-2.959-1.586    c-1.528-1.417-1.812-1.19-1.996-1.044c-0.379,0.299-0.054,0.874,0.161,1.254c0.615,1.089,0.765,1.593,0.798,1.802    c-0.114-0.039-0.316-0.132-0.648-0.35c-0.085-0.056-2.093-1.345-3.464-1.345h-1.041c-1.371,0-3.379,1.289-3.466,1.346    c-0.331,0.217-0.532,0.31-0.646,0.349c0.033-0.209,0.183-0.713,0.798-1.802c0.215-0.38,0.54-0.955,0.161-1.254    c-0.188-0.147-0.473-0.369-2.001,1.049c-1.919,1.842-2.942,1.584-2.942,1.584c-0.033-0.012-0.068-0.019-0.104-0.021    c-0.174-0.011-0.229-0.053-0.233-0.063c-0.064-0.145,0.185-0.679,0.479-1.051c2.783-2.862,6.976-3.302,7.018-3.306    c0.206-0.02,0.357-0.203,0.337-0.409c-0.02-0.207-0.189-0.352-0.409-0.337c-0.183,0.018-4.504,0.465-7.507,3.556    c-0.215,0.269-0.893,1.196-0.603,1.851C39.957,23.062,40.175,23.315,40.694,23.36z"/></g></g></svg>